<svg height="512" viewBox="0 0 48 60" width="512" xmlns="http://www.w3.org/2000/svg"><path id="Shape" d="m0 34c.0002629 1.2408161.45896466 2.4377855 1.288 3.361l19.043 21.044c1.0895262 1.1663929 2.6687921 1.74516 4.254 1.559 1.0852068-.1367812 2.0976883-.6188317 2.888-1.375.233-.2-1.13 1.285 19.242-21.232.8275172-.9223328 1.2851415-2.1178541 1.285-3.357 0-8.41.007-6.785-.015-7.063-.0305489-2.0521078-1.3120109-3.8771447-3.231816-4.6026986-1.919805-.725554-4.0880194-.2042568-5.468184 1.3146986l-10.285 11.375v-30.024c0-2.76142375-2.2385763-5-5-5s-5 2.23857625-5 5v30.024l-10.29-11.377c-1.38107049-1.5154697-3.54738686-2.0341779-5.46506677-1.3085693-1.91767992.7256086-3.19800411 2.5484511-3.22993323 4.5985693-.015.263-.015-1.258-.015 7.063zm45.229 2.019c-26.57 29.358-17.152 18.888-19.236 21.225-1.2216202 1.0786415-3.0795916.9900189-4.193-.2-.288-.314-18.4-20.336-19.026-21.026-.49762254-.5544502-.77321641-1.2729882-.774-2.018v-2.853l18.322 20.253c.9565504 1.026878 2.2988028 1.6071569 3.7021641 1.6005095 1.4033614-.0066474 2.7400563-.5996159 3.6868359-1.6355095l18.2890004-20.218-.0000004 2.853c.0003813.7449785-.2741543 1.4638987-.771 2.019zm-42.237-11.238c1.23031901-1.1044757 3.12095408-1.0107473 4.236.21l12.03 13.3c.277417.3070459.7152939.411508 1.1014459.2627663.3861519-.1487416.6408025-.519958.6405541-.9337663v-32.62c0-1.65685425 1.3431458-3 3-3s3 1.34314575 3 3v32.62c-.0002484.4138083.2544022.7850247.6405541.9337663.386152.1487417.8240289.0442796 1.1014459-.2627663l12.027-13.291c.8155773-.8973179 2.0900682-1.2174129 3.2328466-.8119461 1.1427783.4054668 1.930514 1.457256 1.9981534 2.6679461.0437531.7947208-.2328748 1.5738172-.768 2.163l-19.022 21.02c-.5726148.6200642-1.3793939.9710295-2.2234039.9672259-.84401-.0038035-1.6475931-.362026-2.2145961-.9872259l-19-21c-.53300948-.5910792-.80929157-1.3697393-.76803039-2.1645797s.39668345-1.5407079.98803039-2.0734203z"/></svg>